<svg xmlns="http://www.w3.org/2000/svg" viewBox="0 0 861.94 150.69"><defs><style>.cls-1{fill:#6cbd4c;}.cls-2{fill:#1e3d7c;}.cls-3{fill:#1f3d7c;}.cls-4{fill:#6cbe4d;}.cls-5{fill:#6dbe4e;}</style></defs><g id="Layer_2" data-name="Layer 2"><g id="Layer_1-2" data-name="Layer 1"><path class="cls-1" d="M63.5.07C74.22-1.06,85.34,11.63,89.38,8,95.05,4,101.09,1,108.14.11c31.52-1,30.91,35.82,13,52.67-3.62,2.55-17.82,22.26-21,17.65-3.72-3.57-3.71-3.47-.1-7.07,7.84-7.79,16.25-15.14,21.83-24.86C137.3,11,108.86-2.7,89,18.09c-1.58,1.42-2.64,1.54-4.23.05A39.8,39.8,0,0,0,68.49,8.58C55.06,4.69,45.66,16.33,48.06,28.37c3.3,15.69,17,25.36,27.39,36.46,1.45,1.42,1.64,2.23,0,3.72-3.74,3.5-3.69,3.62-7.36-.06-6.76-6.78-13.77-13.36-19.56-21C34.46,31.38,38.05.82,63.5.07Z"/><path class="cls-2" d="M523,94c4.07.31,7.37-1.06,10.39,1.91,9.16,8.79,25.9,2.39,24.68-10.49-9.38,9.44-24.19,7.46-32-2.54C511.37,63.27,536.61,36,558.49,53.29c.83-4.72.83-4.67,5.83-4.44,1.35.07,2,.36,2,1.85-.18,13.07.35,26.18-.69,39.17C563.52,110.42,529.79,112.65,523,94Zm6.23-24.16c.32,19.86,29.37,18.85,29.18-.72C557.73,50.23,529.19,50.58,529.27,69.86Z"/><path class="cls-1" d="M712.62,85.65c-9.21,9.11-24.38,7.26-31.83-2.93-15.07-20.91,10.77-45.29,32.33-29.52.78-3.53,2.28-5.78,6.51-4.33,1.31.42.9,1.4.89,2.2q-.06,11.64-.22,23.3c-.2,13.66,1.8,27.74-16.25,31.7-9.59,1.43-20.07-.25-25-9.57-1.06-1.67-.32-2.11,1.17-2.21,3.09-.2,5.88-.17,8.61,2.18C697.71,104.54,714.28,98,712.62,85.65ZM684,69.32c-.6,20.7,29.43,19.49,29.35.15C713.1,50.44,684.19,50,684,69.32Z"/><path class="cls-1" d="M609,70.07c5.16,6.91,10.06,13.49,15.28,20.5-4.19-.67-9.32,1.82-11.5-2.09C607.27,81,602.1,73.13,596.38,65.74c-1.53,6.75-.17,14.91-.5,22.15.06,2.32-.71,2.8-2.88,2.76-5.44-.12-5.44,0-5.44-5.54,0-15.74.05-31.49,0-47.23,0-2.33.56-3.1,3-3,6.48.34,13,.23,19.45.72C628.86,36.67,630.62,67.3,609,70.07ZM595.83,52.88c.54,2.18-1.33,10.86,1.17,10.87,8.36.38,20.51-.1,19.81-11.54-.06-10-12-10.58-19.65-10.08C594.35,42.27,596.43,50.55,595.83,52.88Z"/><path class="cls-2" d="M38.48,108.66c-5.29,0-10.61-.36-15.87.08-31.26-.57-28.85-46.59-.52-47.47,2.18-.13,2.84-.82,2.92-3-1.49-4,8.92-23.87,12-18.53,1.2,2.4,1.69,4.18-.57,6.67-7,7.67-7,17.52-.81,25.89,1.08,1.44,3.23,3.27,1.61,4.8-1.05,1-2.89-2.13-4.16-3.07-6.07-6.41-6.11-6.54-12.9-4.86a16.31,16.31,0,0,0-12,10.67c-5.59,24.24,19.44,22.07,35.65,21.68,4.86,1.17,21.89-2.56,21.86,3.86C65.58,112.23,43.77,107.84,38.48,108.66Z"/><path class="cls-2" d="M137.83,76.85c-.65-2,.65-2.94,1.45-4,7.44-9.71,6.66-20-2.21-28.54-1.7-1.46-.09-8.69,2.76-5.75,6,5,10.13,11.14,10.53,19.25-1.22,6.86,21,.09,24,25.81.52,33.44-38.9,25-61.05,24.93-4.42-.26-5.91-1.88-4.35-4.93.74-1.45,2-1.69,3.48-1.76,12.48-.61,25-.2,37.47-.34,21.08.25,22.44-30,2.05-32.72C144.55,67.12,142.91,73.46,137.83,76.85Z"/><path class="cls-2" d="M375.77,84.36c-19.6,21-48.34-7.13-32.35-28.34a22.06,22.06,0,0,1,32.17-2c.51-4.64.94-6.2,6.15-5.15,1.85.31,1.19,1.59,1.19,2.5.12,12-.09,24.13.07,36.13.47,2.8-.79,3.29-3.28,3.16C374.57,91,376,88.46,375.77,84.36Zm-.6-14.4c.05-19.5-28.29-19.95-28.76-.17C346.45,88.9,375.12,89.37,375.17,70Z"/><path class="cls-2" d="M299.63,73.24c2.78,11.54,16.63,15.48,23.92,6.43,2.45-3,5.74-2.07,8.86-2.2-4.8,19.58-35.64,17.52-39.5-1.14C284.4,43.59,332.7,35.69,334.35,70c.24,2.28-.42,3.32-3.09,3.27C320.69,73.13,310.21,73.26,299.63,73.24Zm13.47-6c2.56-.76,14.44,1.9,13.3-1.88-3.38-13.92-23.17-14.33-26.64-.21C298.38,69.33,310.44,66.43,313.1,67.26Z"/><path class="cls-1" d="M653.83,72.88c-4.79,0-9.59.12-14.38,0-8.3,0,8.88,20.5,21.11,6.81,1.46-2.52,10.76-4.53,8.52,0-8.17,17.31-35.56,13.67-39.36-5-6.83-30.08,38-37.5,41.22-8.78.58,7.11.73,7.1-6.31,7.1Zm-3.7-5.62c2.39-.66,14.92,1.65,13.89-1.56-3.71-15.08-24.41-14.34-27.25-.5C635.46,69.32,647.47,66.44,650.13,67.26Z"/><path class="cls-2" d="M422.27,52.76c8.3-5.95,17-6.29,23.37-1.26,10.63,9.06,4.66,25.23,6.29,37.5,0,1.08-.24,1.51-1.46,1.63-6.21.61-6.31.59-6.34-5.56-1.17-9.89,4.77-29.59-9.86-30.19-6.22-.25-10.79,3.95-11.09,10.74-.32,7.26-.32,14.54-.23,21.81.41,4.27-2.94,3-5.76,3.18C412.4,94.07,416,56,414.87,51.48c-.17-2.78,1.43-2.76,3.61-2.6C421,48.63,423.24,48.75,422.27,52.76Z"/><path class="cls-2" d="M484.8,53.34c9.87-10.5,29.42-4.51,29.66,9.87-.39,8.24.17,16.53.46,24.8.08,2.07-.45,2.69-2.6,2.64-5.24-.12-5.24,0-5.24-5.34-1-10.22,4.74-31-11.14-30.55-15.35,1.78-8.56,23.05-10.06,33.75,0,1.43-.32,2.08-2,2.13-6,.21-6,.28-6-5.82,0-11.06.05-22.12-.05-33.18,0-2.27.53-3.15,2.85-2.59C482.71,49.55,486.11,48,484.8,53.34Z"/><path class="cls-1" d="M841.75,81.14c3.75-9.64,7.35-18.43,10.56-27.36,1.18-3.31,2.57-5,6.43-4.76s3.76-.1,2.33,3.34q-9.92,23.86-19.86,47.72c-1.68,5.81-4.32,4.23-9.26,3.54,1.35-5.66,6.71-11,4.53-16.68-4.81-11.72-9.43-23.52-14.27-35.22-.93-2.25-.22-2.65,1.77-2.85,5-.48,5.12-.42,6.88,4.21C834.58,62.56,837.7,71.72,841.75,81.14Z"/><path class="cls-1" d="M748.28,77c2.23-.63,3.33.55,4.06,3.14,1,5.73,10.48,6.28,12.16.61C767.18,70.16,743,73.3,746,59.7c1-6.61,3.94-10,9.48-11,8.16-1.56,13.93,1.76,15.71,8.88.4,1.58.05,2.42-1.47,2.45-2.64,0-5.55,1-6.92-2.79-1.55-4.15-8.82-2.65-9.24,1.76-.4,5.61,7.18,5.41,10.68,7.8C778.51,72.91,772,92.1,758,91.64c-7.14-.06-12.2-4.17-13.54-11C743.7,77,743.7,77,748.28,77Z"/><path class="cls-2" d="M261.06,62.59c0-8.27.06-16.54,0-24.81,0-2.06.25-3,2.69-2.9,5.32.18,5.33,0,5.33,5.27,0,13.35.07,26.71-.07,40.06,0,2.54.77,3.18,3.19,3.1,3.24.72,16.8-2.07,16.18,2.31,0,5,.15,5-4.92,5C251.47,90.56,263.17,94.88,261.06,62.59Z"/><path class="cls-1" d="M788.77,41.83c-1.42,12.77,7.5,2,6.74,10.67.41,2.63-.49,3.91-3.32,3.4-2.64-.48-3.55.48-3.49,3.31.19,9.47,0,18.94.12,28.41,0,2.27-.45,3.13-2.92,3-4.79-.18-4.79,0-4.79-4.68,0-9-.1-18,0-26.92.23-6.19-5.23-1.12-5.88-4s-1-7.65,3.32-6.2c6.26.8-.89-13.61,4.34-14C788.78,34.62,788.77,34.56,788.77,41.83Z"/><path class="cls-2" d="M69.06,97.77c23.17-22,12.4-22.28,35.21,0-3.91.8-12.07-2.57-10.92,3.85-.79,2.78,1.91,11.72-1.8,11.74-14.48.32-10.38.55-10.73-12.63C81.21,95.13,73,98.8,69.06,97.77Z"/><path class="cls-1" d="M808.85,51.88c2.25-1.89,10.57-6.68,10.51-1.59-.05,2.86.83,5.4-3.16,6.12-11.73,2.66-6.42,21.74-7.54,31.12.05,2.47-.71,3.45-3.19,3.09-1.6-.41-4.6,1-4.46-1.71,1.07-5-2.41-42,2-40C805.14,49.23,808.3,47.44,808.85,51.88Z"/><path class="cls-1" d="M69.42,134c3.48-1.14,6.27-.86,9-.79,6.26-.54-2.68-9.23,8.51-8,5.76-.57,7.5-.29,6.36,6,.11,3.83,7.7,1.21,10.38,1.94.53.94-.17,1.26-.54,1.63q-7.4,7.42-14.82,14.8c-.64.63-1.14,1.72-2.35.53C80.59,144.86,75.16,139.62,69.42,134Z"/><path class="cls-3" d="M399.78,52.12c2.19-2,10-7,10.24-2,.58,4.45,1.09,6.15-4,6.62-10.44,5.81-4.67,21.2-6,31.05,0,2.38-.67,3-3,2.91-4.89-.16-4.89,0-4.89-4.86,0-11.16,0-22.32.05-33.48,0-1.28-1.11-3.67,1.78-3.37C396.15,49.16,399.54,47.29,399.78,52.12Z"/><path class="cls-1" d="M730.62,84.62l.17-16.6c.17-5.8-2.14-20.65,2.49-19.23,5.13.08,5.14,0,5.14,5.24,0,11.24,0,22.49,0,33.73,0,2.09-.3,3-2.7,2.9C730.36,90.49,730.63,90.67,730.62,84.62Z"/><path class="cls-2" d="M460.62,69.72c1-3.72-2.48-22.43,2.6-20.89,5.19.1,5.2,0,5.2,5.15,0,11.36-.06,22.72.05,34.07,0,2.14-.59,2.64-2.65,2.6-5.2-.12-5.2,0-5.2-5.08Z"/><path class="cls-4" d="M205.35,39.23c15.22-7.16,15.21,7,15,17.83,0,1.29,0,2.31-1.82,2.33-4.38,0-1.34-9.86-2.26-13,.6-7.58-11.17-7.22-10.86-.09-1,3.16,2.09,13-2.1,13.15-1.92,0-2-.89-2-2.38,1-3.92-2.23-28.23,2.08-26.79C207.19,30.56,204.65,36.29,205.35,39.23Z"/><path class="cls-1" d="M236.9,49.91c-2.4.53-11-1.83-8.08,2.91A7.21,7.21,0,0,0,238.53,55c1.65-.89,3.71-3.7,5.67-2.34.89,1-.21,1.84-.73,2.59-5.23,7.44-18.4,4.36-19.39-4.82-1.16-8.69,5-13.68,11.72-13.21,5.64.4,9.64,5.66,9.86,11.2C245.33,51.51,239.24,49.25,236.9,49.91Zm-2.07-2.41c2.06-.52,7.28,1.5,7.08-1.79-.55-2.52-4.09-5.27-6.93-5.37a7.34,7.34,0,0,0-7.15,4.86C226.68,49.05,232.69,47,234.83,47.5Z"/><path class="cls-2" d="M122.13,123.79c.73-2.59-1.91-8,2.13-8.16,3.63-.46,1.85,7.7,2,10-.88,4.8,2.24,7.21,5.19,9.85,4.15,1.15,8.57-.1,9.13,5.76-.25,7.07-11.85,7.91-11.21-.23C128.29,134.25,119.32,133.23,122.13,123.79Z"/><path class="cls-1" d="M51.38,124.11c.83,5.33-.46,9.73-5.06,13C42.4,140,47,146.45,38.74,147c-6.88-.18-7.11-11.12.3-10.94,4.18-.09,8.73-4.8,8.74-9,.71-2.68-1.76-11.17,1.7-11.32C53.21,115.91,50.65,121.59,51.38,124.11Z"/><path class="cls-5" d="M188.81,46.65c-.84-2.87,2.11-12.82-2.17-12.31-1.84.31-3.66-.36-3.37-2.46.13-3.37,10.14-.84,12.92-1.6,3-.82,2.76,4.74-.11,4-3.06-.5-3.29,1.11-3.24,3.53-.61,3.17,1.95,23.07-1.87,21.58C186.8,59.71,189.57,49.58,188.81,46.65Z"/><path class="cls-2" d="M31,126.49c-4.24,0-4.24,0-4.24-5.34,0-3.63,0-3.63,5.65-3.63,3.35,0,3.35,0,3.35,5.64C35.78,126.49,35.78,126.49,31,126.49Z"/><path class="cls-1" d="M142.54,126.49c-4.22,0-4.22,0-4.22-5.13,0-3.84,0-3.84,5.22-3.84,3.78,0,3.78,0,3.77,5.58C147.31,126.49,147.31,126.49,142.54,126.49Z"/><path class="cls-1" d="M730.14,39.21c.23-1.71-.89-4.4,1.81-4.3,6-.3,5.82-.36,6.06,5.5.11,2.83-.59,4.08-3.53,3.53C730,44.42,729.84,43.31,730.14,39.21Z"/><path class="cls-2" d="M468.71,40c1.11,5.85-2.93,4-7,4.09-1.62-.52-.47-3.22-.8-4.58,0-4.51,0-4.35,4.47-4.57C469.3,34.44,468.84,36.94,468.71,40Z"/></g></g></svg>