<svg xmlns="http://www.w3.org/2000/svg" viewBox="0 0 177.37 153.64"><defs><style>.cls-1,.cls-2{fill:#fff;stroke-miterlimit:10;stroke-width:3px;}.cls-1{stroke:#6cbd4c;}.cls-2{stroke:#1e3d7c;}</style></defs><g id="Layer_2" data-name="Layer 2"><g id="Layer_1-2" data-name="Layer 1"><path class="cls-1" d="M65,1.57C75.72.44,86.84,13.13,90.88,9.5c5.67-4,11.71-7,18.76-7.89,31.52-1,30.91,35.82,13,52.67-3.62,2.55-17.82,22.26-21,17.65-3.72-3.57-3.71-3.47-.1-7.07,7.84-7.79,16.25-15.14,21.83-24.86,15.43-27.5-13-41.2-32.87-20.41-1.58,1.42-2.64,1.54-4.23.05A39.88,39.88,0,0,0,70,10.08C56.56,6.19,47.16,17.83,49.56,29.87c3.3,15.69,17,25.36,27.39,36.46,1.45,1.42,1.64,2.23,0,3.72-3.74,3.5-3.69,3.62-7.36-.06C62.83,63.21,55.82,56.63,50,49,36,32.88,39.55,2.32,65,1.57Z"/><path class="cls-2" d="M40,110.16c-5.29,0-10.61-.36-15.87.08-31.26-.57-28.85-46.59-.52-47.47,2.18-.13,2.84-.82,2.92-3-1.49-4,8.92-23.87,12-18.53,1.2,2.4,1.69,4.18-.57,6.67-7,7.67-7,17.52-.81,25.89,1.08,1.44,3.23,3.27,1.61,4.8-1.05,1-2.89-2.13-4.16-3.07-6.07-6.41-6.11-6.54-12.9-4.86a16.34,16.34,0,0,0-12,10.67C4.09,105.58,29.12,103.41,45.33,103c4.86,1.17,21.89-2.56,21.86,3.86C67.08,113.73,45.27,109.34,40,110.16Z"/><path class="cls-2" d="M139.33,78.35c-.65-2,.65-2.94,1.45-4,7.44-9.71,6.66-20-2.21-28.54-1.7-1.46-.09-8.69,2.76-5.75,6,5,10.13,11.14,10.53,19.25-1.22,6.86,21,.09,24,25.81.52,33.44-38.9,25-61.05,24.93-4.42-.26-5.91-1.88-4.35-4.93.74-1.45,2-1.69,3.48-1.76,12.48-.61,25-.2,37.47-.34,21.08.25,22.44-30,2.05-32.72C146.05,68.62,144.41,75,139.33,78.35Z"/><path class="cls-2" d="M70.56,99.27c23.17-22,12.4-22.28,35.21,0-3.91.8-12.07-2.57-10.92,3.85-.79,2.78,1.91,11.72-1.8,11.74-14.48.32-10.38.55-10.73-12.63C82.71,96.63,74.5,100.3,70.56,99.27Z"/><path class="cls-1" d="M70.92,135.5c3.48-1.14,6.27-.86,9-.79,6.26-.54-2.68-9.23,8.51-8,5.76-.57,7.5-.29,6.36,6,.11,3.83,7.7,1.21,10.38,1.94.53.94-.17,1.26-.54,1.63q-7.39,7.42-14.82,14.8c-.64.63-1.14,1.72-2.35.53C82.09,146.36,76.66,141.12,70.92,135.5Z"/><path class="cls-2" d="M123.63,125.29c.73-2.59-1.91-8,2.13-8.16,3.63-.46,1.85,7.7,2,10-.88,4.8,2.24,7.21,5.19,9.85,4.15,1.15,8.57-.1,9.13,5.76-.25,7.07-11.85,7.91-11.21-.23C129.79,135.75,120.82,134.73,123.63,125.29Z"/><path class="cls-1" d="M52.88,125.61c.83,5.33-.46,9.73-5.06,13-3.92,2.89.68,9.34-7.58,9.89-6.88-.18-7.11-11.12.3-10.94,4.18-.09,8.73-4.8,8.74-9,.71-2.68-1.76-11.17,1.7-11.32C54.71,117.41,52.15,123.09,52.88,125.61Z"/><path class="cls-2" d="M32.5,128c-4.24,0-4.24,0-4.24-5.34,0-3.63,0-3.63,5.65-3.63,3.35,0,3.35,0,3.35,5.64C37.28,128,37.28,128,32.5,128Z"/><path class="cls-1" d="M144,128c-4.22,0-4.22,0-4.22-5.13,0-3.84,0-3.84,5.22-3.84,3.78,0,3.78,0,3.77,5.58C148.81,128,148.81,128,144,128Z"/></g></g></svg>